<?xml version="1.0" encoding="UTF-8" standalone="no"?>
<!-- Generator: Adobe Illustrator 19.0.1, SVG Export Plug-In . SVG Version: 6.00 Build 0)  -->

<svg
   xmlns:dc="http://purl.org/dc/elements/1.1/"
   xmlns:cc="http://creativecommons.org/ns#"
   xmlns:rdf="http://www.w3.org/1999/02/22-rdf-syntax-ns#"
   xmlns:svg="http://www.w3.org/2000/svg"
   xmlns="http://www.w3.org/2000/svg"
   xmlns:sodipodi="http://sodipodi.sourceforge.net/DTD/sodipodi-0.dtd"
   xmlns:inkscape="http://www.inkscape.org/namespaces/inkscape"
   version="1.1"
   id="Capa_1"
   x="0px"
   y="0px"
   viewBox="-266 386.1 62.8 70.8"
   style="enable-background:new -266 386.1 62.8 70.8;"
   xml:space="preserve"
   inkscape:version="0.91 r13725"
   sodipodi:docname="Icono_Web.svg"><metadata
     id="metadata17"><rdf:RDF><cc:Work
         rdf:about=""><dc:format>image/svg+xml</dc:format><dc:type
           rdf:resource="http://purl.org/dc/dcmitype/StillImage" /><dc:title></dc:title></cc:Work></rdf:RDF></metadata><defs
     id="defs15" /><sodipodi:namedview
     pagecolor="#ffffff"
     bordercolor="#666666"
     borderopacity="1"
     objecttolerance="10"
     gridtolerance="10"
     guidetolerance="10"
     inkscape:pageopacity="0"
     inkscape:pageshadow="2"
     inkscape:window-width="742"
     inkscape:window-height="480"
     id="namedview13"
     showgrid="false"
     inkscape:zoom="3.3333332"
     inkscape:cx="31.4"
     inkscape:cy="35.400002"
     inkscape:window-x="0"
     inkscape:window-y="0"
     inkscape:window-maximized="0"
     inkscape:current-layer="Capa_1" /><style
     type="text/css"
     id="style3">
	.st0{fill:#D80027;}
	.st1{fill:#0088D3;}
</style><g
     id="g5"><g
       id="g7"><path
         class="st0"
         d="M-205.7,416v-4l-0.6-0.2c-0.2-0.1-4.8-1.9-11-1.9c-6.6,0-12.4,2-17,6c-4.7-4-10.4-6-17-6    c-6.2,0-10.8,1.8-11,1.9l-0.6,0.2v3.7c-1.9,0.3-3,1-3,2c0,5.3,0,37.7,0,37.7h27.8c1,0.9,2.4,1.4,3.9,1.4c1.6,0,3-0.5,3.9-1.4h27.1    c0,0,0-35.9,0-37.7C-203.2,416.8-204.2,416.3-205.7,416z M-234.6,452.4c-2.3-0.9-10.3-4-18.2-4c-3.1,0-5.9,0.5-8.3,1.4v-36.6    c1.4-0.5,5.2-1.6,9.8-1.6c6.1,0,11.4,1.8,15.7,5.5V439l1.1-1.2v14.6H-234.6z M-207.5,449.9c-2.5-1-5.5-1.5-8.7-1.5    c-8,0-15.5,3-17.8,4v-14.6l1.1,1.2v-21.9c4.3-3.6,9.5-5.5,15.7-5.5c4.6,0,8.4,1.1,9.8,1.6v36.7H-207.5z"
         id="path9" /><path
         class="st1"
         d="M-250.4,395.9c1.3,0.9,2.8,1.6,4.5,2.3c-0.7,2.6-1.1,5.6-1.2,8.7h-0.3c2.3,0.3,4.5,0.9,6.5,1.7h5.4v3.1    c0.4,0.3,0.8,0.6,1.1,0.9c0.2-0.2,0.4-0.3,0.6-0.5v-3.5h5.9c2-0.8,4.2-1.4,6.5-1.7h-0.9c0-3.1-0.4-6-1.1-8.6    c1.7-0.6,3.3-1.4,4.6-2.3c2.2,3.1,3.4,6.8,3.5,10.7c0.6,0,1.2,0.1,1.7,0.2c-0.1-4.4-1.5-8.6-3.9-11.9c-0.3-0.5-0.7-0.9-1-1.3    c-3.9-4.6-9.7-7.6-16.2-7.6l0,0l0,0c0,0,0,0-0.1,0c-6.5,0-12.2,3-16.1,7.6c-0.4,0.4-0.7,0.9-1,1.3c-2.4,3.4-3.8,7.5-3.9,12    c0.6-0.1,1.1-0.1,1.7-0.2C-253.9,402.7-252.6,399-250.4,395.9z M-219.8,394.6c-1.2,0.8-2.5,1.5-4.1,2c-1.1-3.3-2.8-6.1-4.7-8    C-225.1,389.8-222.1,391.9-219.8,394.6z M-233.7,387.8c3.5,0.5,6.5,4.2,8.3,9.4c-2.5,0.7-5.3,1.2-8.3,1.2V387.8L-233.7,387.8z     M-233.7,400.2c3.1-0.1,6.1-0.6,8.7-1.4c0.6,2.5,1,5.2,1,8.1h-9.8v-6.7H-233.7z M-235.5,406.9h-9.9c0-2.9,0.4-5.7,1-8.1    c2.7,0.8,5.7,1.3,8.8,1.4L-235.5,406.9L-235.5,406.9z M-235.5,387.8v10.7c-3-0.1-5.9-0.5-8.4-1.3    C-242.1,391.9-239,388.2-235.5,387.8z M-240.8,388.7c-1.9,1.9-3.6,4.6-4.7,7.9c-1.5-0.6-2.8-1.2-4-2    C-247.2,391.9-244.2,389.9-240.8,388.7z"
         id="path11" /></g></g></svg>
