<?xml version="1.0" encoding="utf-8"?>
<!-- Generator: Adobe Illustrator 19.0.1, SVG Export Plug-In . SVG Version: 6.00 Build 0)  -->
<svg version="1.1" id="Capa_1" xmlns="http://www.w3.org/2000/svg" xmlns:xlink="http://www.w3.org/1999/xlink" x="0px" y="0px"
	 viewBox="-41 164.9 1206 512" style="enable-background:new -41 164.9 1206 512;" xml:space="preserve">
<style type="text/css">
	.st0{fill:#E1E371;}
	.st1{fill:#A3261A;}
	.st2{font-family:'Timber';}
	.st3{font-size:206.5462px;}
	.st4{font-size:203.2477px;}
</style>
<g>
	<polygon class="st0" points="-10.7,638.7 -10.7,182.9 -41,182.9 -41,658.9 729.9,658.9 729.9,638.8 729.9,638.7 	"/>
	<path class="st0" d="M410,250.7l-0.3-14.9C408.4,240.8,407.2,245.5,410,250.7z"/>
	<path class="st0" d="M410,250.9c0.1,0.1,0.2,0.2,0.3,0.3c-0.1-0.2-0.2-0.3-0.3-0.5L410,250.9z"/>
	<path class="st0" d="M197.4,223.2h-186v402.6h186V223.2z M172,609H36.9v-37.8H172V609z M172,467.8H36.9V240.1H172V467.8z"/>
	<g>
		<polygon class="st0" points="987.7,253.2 890.2,267 893.3,276.8 990.8,263.1 		"/>
		<path class="st0" d="M837.9,231.9c-0.3,1.3-0.6,2.6-1,3.9l0.3,14.9c0.1,0.2,0.2,0.3,0.3,0.5c9.7,13.1,124,374.6,124,374.6
			l181.5-26.7L1012.1,206l-175.3,25.7l0.1,4.1C837.2,234.5,837.6,233.2,837.9,231.9z M1112.7,586.3l-131.9,19.3l-12.2-36.8
			l131.8-19.4L1112.7,586.3z M992.7,226.1l74,222.3l-131.9,19.4l-74.1-222.3L992.7,226.1z"/>
	</g>
	<rect x="266.8" y="270.1" class="st0" width="99.7" height="10.1"/>
	<path class="st0" d="M409.6,260.4v-8.8c0-0.6,0.4-0.7,0.4-0.7l0-0.2c-2.8-5.2-1.6-9.9-0.3-14.9l-0.1-4.1v-7.9h-186v402.6h186V260.4
		z M384.2,609.6H249.1v-37.8h135.1V609.6z M384.2,468.5H249.1V240.8h135.1V468.5z"/>
	<rect x="56.2" y="265" class="st0" width="99.6" height="10.1"/>
	<path class="st0" d="M624.3,223.5h-186v402.6h186V223.5z M598.8,609.3H463.7v-37.8h135.1V609.3z M598.8,468.1H463.7V240.4h135.1
		V468.1z"/>
	<rect x="693.7" y="270.4" class="st0" width="99.7" height="10.1"/>
	<path class="st0" d="M836.5,260.7v-8.8c0-0.6,0.4-0.7,0.4-0.7l0-0.2c-2.8-5.2-1.6-9.9-0.3-14.9l-0.1-4.1v-7.9h-186v402.6h186V260.7
		z M811,610H675.9v-37.8H811V610z M811,468.8H675.9V241.1H811V468.8z"/>
	<rect x="483" y="265.4" class="st0" width="99.6" height="10.1"/>
	<rect x="699.8" y="638.8" class="st0" width="465.2" height="20.1"/>
	<rect x="1068.6" y="648.8" class="st0" width="81.3" height="0"/>
	<rect x="831.8" y="231.8" class="st0" width="5.7" height="19.4"/>
</g>
<rect x="36.9" y="366.8" class="st0" width="135.1" height="101"/>
<rect x="249.3" y="370.4" class="st0" width="135.1" height="101"/>
<rect x="463.7" y="366.8" class="st0" width="135.1" height="101"/>
<rect x="676.1" y="370.4" class="st0" width="135.1" height="101"/>
<rect x="908.7" y="368.5" transform="matrix(0.9613 -0.2756 0.2756 0.9613 -77.4371 287.0408)" class="st0" width="147.5" height="101"/>
<g>
	<text transform="matrix(1.1173 0 0 1 56.1572 539.1755)" class="st1 st2 st3">B</text>
	<text transform="matrix(1.1173 0 0 1 260.9219 539.1755)" class="st1 st2 st3">R</text>
	<text transform="matrix(1.1173 0 0 1 482.9941 539.1755)" class="st1 st2 st3">E</text>
	<text transform="matrix(1.1173 0 0 1 681.6074 539.1755)" class="st1 st2 st3">M</text>
	<text transform="matrix(1.0964 -0.405 0.1926 0.9813 968.553 539.1752)" class="st1 st2 st4">S</text>
</g>
</svg>
