<?xml version="1.0" encoding="utf-8"?>
<!-- Generator: Adobe Illustrator 19.0.1, SVG Export Plug-In . SVG Version: 6.00 Build 0)  -->
<svg version="1.1"
	 id="Capa_1" xmlns:dc="http://purl.org/dc/elements/1.1/" xmlns:cc="http://creativecommons.org/ns#" xmlns:inkscape="http://www.inkscape.org/namespaces/inkscape" xmlns:rdf="http://www.w3.org/1999/02/22-rdf-syntax-ns#" xmlns:svg="http://www.w3.org/2000/svg" xmlns:sodipodi="http://sodipodi.sourceforge.net/DTD/sodipodi-0.dtd" inkscape:version="0.91 r13725" sodipodi:docname="Icono_Web.svg"
	 xmlns="http://www.w3.org/2000/svg" xmlns:xlink="http://www.w3.org/1999/xlink" x="0px" y="0px" viewBox="-213 386.1 141 97.1"
	 style="enable-background:new -213 386.1 141 97.1;" xml:space="preserve">
<style type="text/css">
	.st0{fill:#F3F8F7;}
	.st1{font-family:'Timber';}
	.st2{font-size:41.5051px;}
</style>
<g id="g5">
	<g id="g7">
		<path id="path9" class="st0" d="M-106.7,425.8v-3.9l-0.8-0.2c-0.3-0.2-6-1.9-14.1-1.9c-8.3,0-15.9,1.9-21.6,5.8
			c-6-3.9-13.3-5.8-21.6-5.8c-7.8,0-13.8,1.8-14.1,1.9l-0.8,0.2v3.7c-2.5,0.4-3.8,1-3.8,1.9c0,5.3,0,37.2,0,37.2h35.5
			c1.3,1,3,1.4,5,1.4s3.8-0.6,5-1.4h34.5c0,0,0-35.5,0-37.2C-103.7,426.6-104.9,426-106.7,425.8z M-143.7,461.7
			c-3-1-13.1-3.9-23.2-3.9c-4,0-7.6,0.6-10.6,1.4v-36c1.8-0.6,6.5-1.6,12.6-1.6c7.8,0,14.6,1.8,19.9,5.5v21.6l1.5-1.2L-143.7,461.7
			L-143.7,461.7z M-108.9,459.2c-3.3-1-7-1.6-11.1-1.6c-10.1,0-19.6,2.9-22.7,3.9v-14.4l1.5,1.2v-21.6c5.5-3.5,12.1-5.5,19.9-5.5
			c5.8,0,10.8,1.2,12.6,1.6L-108.9,459.2L-108.9,459.2L-108.9,459.2z"/>
		<path id="path11" class="st0" d="M-163.8,406c1.8,1,3.5,1.6,5.8,2.3c-1,2.5-1.5,5.5-1.5,8.6h-0.5c3,0.4,5.8,1,8.3,1.8h6.8v3.1
			c0.5,0.4,1,0.6,1.5,1c0.3-0.2,0.5-0.4,0.8-0.6v-3.5h7.6c2.5-0.8,5.3-1.4,8.3-1.8h-1.3c0-3.1-0.5-5.8-1.5-8.6
			c2.3-0.6,4.3-1.4,5.8-2.3c2.8,3.1,4.3,6.6,4.5,10.5c0.8,0,1.5,0.2,2.3,0.2c-0.3-4.3-2-8.6-5-11.7c-0.5-0.6-1-1-1.3-1.4
			c-5-4.5-12.3-7.4-20.6-7.4l0,0l0,0c0,0,0,0-0.3,0c-8.3,0-15.6,2.9-20.6,7.4c-0.5,0.4-1,1-1.3,1.4c-3,3.3-4.8,7.4-5,11.9
			c0.8-0.2,1.5-0.2,2.3-0.2C-168.1,412.8-166.6,409.1-163.8,406z M-124.8,404.8c-1.5,0.8-3.3,1.6-5.3,1.9c-1.5-3.3-3.5-6-6-7.8
			C-131.3,399.9-127.6,402.1-124.8,404.8z M-142.4,398c4.5,0.6,8.3,4.1,10.6,9.4c-3.3,0.8-6.8,1.2-10.6,1.2V398L-142.4,398z
			 M-142.4,410.3c4-0.2,7.8-0.6,11.1-1.4c0.8,2.5,1.3,5.1,1.3,8h-12.6L-142.4,410.3L-142.4,410.3z M-144.7,416.9h-12.6
			c0-2.9,0.5-5.7,1.3-8c3.5,0.8,7.3,1.4,11.3,1.4V416.9L-144.7,416.9z M-144.7,398v10.5c-3.8-0.2-7.6-0.6-10.8-1.4
			C-153.2,402.1-149.2,398.4-144.7,398z M-151.5,399c-2.5,1.9-4.5,4.5-6,7.8c-2-0.6-3.5-1.2-5-1.9
			C-159.5,402.1-155.8,400.1-151.5,399z"/>
	</g>
</g>
<text transform="matrix(0.686 0 0 1 -174.1635 454.4552)" class="st0 st1 st2">BR MS</text>
</svg>
